<?xml version="1.0" encoding="utf-8"?>
<!-- Generator: Adobe Illustrator 24.3.0, SVG Export Plug-In . SVG Version: 6.00 Build 0)  -->
<svg version="1.1" id="Layer_1" xmlns="http://www.w3.org/2000/svg" xmlns:xlink="http://www.w3.org/1999/xlink" x="0px" y="0px"
	 viewBox="0 0 778.63 232.19" style="enable-background:new 0 0 778.63 232.19;" xml:space="preserve">
<style type="text/css">
	.st0{fill:#BCBCBC;}
	.st1{fill:#2D2D2D;}
	.st2{fill:none;stroke:#000000;stroke-miterlimit:10;}
	.st3{fill:#2D2D2D;stroke:#2D2D2D;stroke-width:0.75;stroke-miterlimit:10;}
	.st4{fill:#FFFFFF;}
</style>
<path class="st0" d="M135.83,6.99H2.65c-1.06,0-1.92,0.86-1.92,1.92v62.31c0,1.01,0.82,1.83,1.83,1.83h49.19
	c1.01,0,1.83-0.82,1.83-1.83V46.18c0-1.01,0.82-1.83,1.83-1.83h39.16c1.01,0,1.83,0.82,1.83,1.83v73.33c0,1.01-0.82,1.83-1.83,1.83
	H58.15c-1.01,0-1.83,0.82-1.83,1.83v35.06c0,1.01,0.82,1.83,1.83,1.83h77.68h77.68c1.01,0,1.83-0.82,1.83-1.83v-35.06
	c0-1.01-0.82-1.83-1.83-1.83h-36.43c-1.01,0-1.83-0.82-1.83-1.83V46.18c0-1.01,0.82-1.83,1.83-1.83h39.16
	c1.01,0,1.83,0.82,1.83,1.83v25.04c0,1.01,0.82,1.83,1.83,1.83h49.19c1.01,0,1.83-0.82,1.83-1.83V8.82c0-1.01-0.82-1.83-1.83-1.83
	H135.83z"/>
<path class="st1" d="M135.83,13.37H12.12v51.93H42.2V44.34c0-4.02,3.26-7.29,7.29-7.29h50.11c4.02,0,7.29,3.26,7.29,7.29v77.01
	c0,4.02-3.26,7.29-7.29,7.29H67.7v22.78h68.13h68.13v-22.78h-31.89c-4.02,0-7.29-3.26-7.29-7.29V44.34c0-4.02,3.26-7.29,7.29-7.29
	h50.11c4.02,0,7.29,3.26,7.29,7.29v20.96h30.08V13.37H135.83z"/>
<path class="st0" d="M484.81,8.4c-4.76-0.92-9.68-1.41-14.72-1.41h-191.5c-1.01,0-1.83,0.82-1.83,1.83v28.25l0,5.47
	c0,1.01,0.82,1.82,1.82,1.82h31.14c1.01,0,1.83,0.82,1.83,1.83v73.11c0,1.01-0.82,1.83-1.83,1.83h-31.14
	c-1.01,0-1.82,0.82-1.82,1.82v5.7v29.6c0,1.01,0.82,1.83,1.83,1.83h191.5c5.02,0,9.96-0.49,14.72-1.41
	c15.23-2.97,28.85-10.46,39.4-20.99c13.84-13.86,22.41-32.99,22.41-54.12C546.62,46.3,520.05,15.26,484.81,8.4z M456.09,115.09
	c-8.36,8.39-19.93,13.55-32.7,13.55h-45.33V36.15l44.36,0c24.49,0,45.49,18.65,47.1,43.08C470.44,93.25,465.14,106.04,456.09,115.09
	z"/>
<path class="st0" d="M422.36,36.15l-44.3,0v92.48h45.33c12.77,0,24.34-5.17,32.7-13.55c8.52-8.52,13.72-20.36,13.53-33.42
	C469.23,56.25,447.78,36.15,422.36,36.15z M448.03,110.06c-6.97,6.97-16.59,11.28-27.23,11.28h-30.69c-1.01,0-1.83-0.82-1.83-1.83
	V46.18c0-1.01,0.82-1.83,1.83-1.83l29.73,0c21.26,0,39.24,16.82,39.46,38.08C459.42,93.23,455.09,103,448.03,110.06z"/>
<path class="st1" d="M484.81,16.17c-6.19-1.8-12.73-2.79-19.5-2.79H286.03v23.68h27.8c4.02,0,7.28,3.26,7.28,7.28v77.02
	c0,4.02-3.26,7.28-7.28,7.28h-27.8v22.78h179.29c6.77,0,13.31-0.98,19.5-2.79c28.62-8.41,49.51-34.87,49.51-66.22v-0.02
	C534.32,51.04,513.43,24.57,484.81,16.17z M456.09,115.09c-8.36,8.39-19.93,13.55-32.7,13.55h-38.05c-4.02,0-7.28-3.26-7.28-7.28
	V43.43c0-4.02,3.26-7.28,7.28-7.28l37.02,0c25.43,0,46.87,20.09,47.26,45.51C469.81,94.72,464.61,106.56,456.09,115.09z"/>
<path class="st0" d="M777.31,113.33c-2.6,15.6-12.55,27.97-27.03,34.35c-13.37,5.86-30.38,8.79-44.89,10.35
	c-0.37,0.04-0.74,0.08-1.11,0.1c-9.29,0.86-26.84,0.86-42.54,0.53c-9.12-0.2-18.16-1.33-27.02-3.38c-0.84-0.18-1.68-0.39-2.5-0.62
	c-7.98-1.97-15.75-4.72-23.25-8.18v11.6c0,1.05-0.86,1.87-1.89,1.82c-15.07-0.62-34.75,0.33-52.81,0.12c-1-0.02-1.8-0.84-1.8-1.85
	v-43.67c0-1,0.82-1.82,1.82-1.82h53.18c0.84,0,1.56,0.59,1.76,1.41c0.98,4.02,5.23,15.38,21.59,16.13l62.57-0.53
	c4.96,0,9.27-3.49,9.27-8.45c0-4.72-3.85-8.55-8.57-8.51c-58-0.86-78.64-4.39-78.64-4.39c-18.55-2.83-37.29-9.06-50.74-22.53
	c-10.29-10.29-13.33-25.16-10.07-39.34c4.1-17.86,19.99-27.1,21.63-28.11c0,0,20.67-15.93,93.38-10.35
	c31.33,2.4,45.92,12.85,45.92,12.85l1.78-10.76c0.14-0.88,0.9-1.54,1.8-1.54h45.9c1.03,0,1.82,0.82,1.82,1.82v39.63
	c0,1-0.8,1.82-1.82,1.82h-48.75c-0.47,0-0.92-0.18-1.27-0.51c-8.2-8.12-19.29-12.69-30.85-12.69h-45c0,0-13.37,0.31-12.61,10.03
	c0.76,9.72,18.37,9.86,22.94,9.86c19.58,0,45.08,0,45.08,0c16.05-0.55,43.59,1.29,60.11,10.58
	C771.1,78.32,780.41,94.88,777.31,113.33z"/>
<path class="st1" d="M756.45,135.82c-13.1,9.57-26.31,13.18-42.41,15.68c-12.79,2.01-25.19,3.31-38.11,2.51
	c-40.1-2.48-43.97-3.76-62.65-13.82c-16.63-8.96-16.18,11.91-16.18,11.91l-28.47-0.51c-3.93-0.07-7.09-3.24-7.15-7.17l-0.36-23.92
	l39.63-0.06c10.2,23.79,79.09,17.37,93.74,15.72c2.01-0.23,4.01-0.55,5.97-1.07c0.67-0.18,1.28-0.36,1.78-0.58
	c4.67-1.96,8.04-6.3,8.93-11.28c0.27-1.49,0.25-2.87,0.01-4.14c-0.08-0.33-0.16-0.66-0.25-1.03c0-0.04-0.02-0.1-0.02-0.14
	c-0.72-4.04-3.63-6.62-6.79-8.24c-0.02-0.02-0.04-0.04-0.06-0.02c-1.74-0.9-3.55-1.52-5.08-1.93c-0.16-0.04-0.31-0.06-0.45-0.1
	c-1.29-0.33-2.36-0.49-2.99-0.57c-0.39-0.06-0.62-0.08-0.62-0.08c-9.25-1.46-22.61-1.85-32.84-1.91c-2.91,0.02-5.64,0.06-7.98,0.06
	c-2.23,0.04-4.51,0.06-6.89,0.06c-16.81-0.08-34.87-2.83-50.8-8.2c-15.93-5.39-34.28-19.39-35.3-36.19
	c-0.9-14.93,5.13-28.74,18.06-36.27c13.26-7.71,30.18-9.12,45.41-10.48c15.48-1.35,21.38-0.92,39.9-0.1c0.68,0.04,1.8,0.06,2.5,0.06
	c5.47,0.02,27.25,1.76,41.43,10.58c1.93,1.19,2.91,1.64,4.33,2.56c3.38,2.17,10.64,3.46,13.18-1.46c1.35-2.64,1.03-10.72,1.03-10.72
	h22.67c4.02,0,7.28,3.26,7.28,7.28v22h-2.48c-10.14,0.22-20.29,0.42-30.44,0.63c-2.33,0.05-4.46-1.08-5.94-2.89
	c-3.79-4.63-9.41-7.71-15.22-9.31c-10.19-2.83-21.12-1.7-31.41-2.34c-6.52-0.08-13-0.14-19.5-0.21
	c-17.51-0.66-20.11,0.18-20.11,0.18c-17.12,3.38-19.52,20.83-6.85,29.75c1.95,1.35,4.14,2.32,6.42,3.03
	c4.76,1.5,23.49,4.02,36.6,3.79c14.47-0.25,28.95,0.06,43.36,1.37c11.36,1.05,23.13,1.91,33.75,6.36
	c8.82,3.71,16.83,10.21,20.42,19.07C771.54,108.67,769.47,126.27,756.45,135.82z"/>
<g>
	<polygon class="st4" points="556.82,224.45 577.07,224.45 577.07,220.96 560.38,220.96 560.38,206.98 577.07,206.98 577.07,203.5 
		560.38,203.5 560.38,192.35 577.21,192.35 577.21,188.87 556.82,188.87 	"/>
	<polygon class="st4" points="607.83,216.14 584.15,188.87 583.38,188.87 583.38,224.45 587.05,224.45 587.05,197.51 610.54,224.45 
		611.34,224.45 611.34,188.87 607.83,188.87 	"/>
	<polygon class="st4" points="620.02,224.45 640.26,224.45 640.26,220.96 623.57,220.96 623.57,206.98 640.26,206.98 640.26,203.5 
		623.57,203.5 623.57,192.35 640.41,192.35 640.41,188.87 620.02,188.87 	"/>
	<path class="st4" d="M663.72,206.78c1.69-0.75,2.99-1.86,3.91-3.33c0.91-1.47,1.37-3.17,1.37-5.11c0-2.32-0.66-4.28-1.98-5.87
		c-1.32-1.59-3.04-2.63-5.15-3.11c-1.4-0.32-4.08-0.48-8.03-0.48h-7.09v35.58h3.56v-16.52h2.01l12.79,16.52h4.4l-12.79-16.52
		C659.69,207.91,662.03,207.53,663.72,206.78z M650.3,204.44v-12.09h6.27c2.44,0,4.18,0.21,5.23,0.63s1.9,1.12,2.54,2.09
		c0.65,0.98,0.97,2.06,0.97,3.25c0,1.23-0.32,2.33-0.96,3.33c-0.64,0.99-1.53,1.71-2.66,2.16c-1.14,0.45-2.9,0.68-5.27,0.68
		L650.3,204.44z"/>
	<path class="st4" d="M697.7,210.83h11.34c-0.47,3.29-1.97,5.97-4.5,8.03c-2.53,2.06-5.63,3.1-9.29,3.1c-3.01,0-5.79-0.69-8.32-2.07
		c-2.53-1.38-4.51-3.27-5.95-5.68c-1.44-2.41-2.15-4.95-2.15-7.63c0-2.61,0.69-5.09,2.08-7.44c1.39-2.35,3.34-4.2,5.87-5.58
		c2.52-1.37,5.18-2.06,7.97-2.06c2.24,0,4.54,0.5,6.91,1.51c2.36,1.01,4.53,2.49,6.52,4.44l2.76-2.61c-2.53-2.4-5.13-4.15-7.79-5.24
		s-5.5-1.63-8.51-1.63c-3.72,0-7.06,0.82-10.01,2.46c-2.95,1.64-5.27,3.91-6.97,6.81c-1.69,2.9-2.54,6.04-2.54,9.41
		c0,4.53,1.47,8.52,4.43,11.97c3.84,4.48,9.04,6.72,15.62,6.72c5.42,0,9.74-1.62,12.98-4.85s4.87-7.6,4.9-13.1H697.7V210.83z"/>
	<rect x="719.3" y="188.87" class="st4" width="3.56" height="35.58"/>
	<polygon class="st4" points="731.03,224.45 751.27,224.45 751.27,220.96 734.58,220.96 734.58,206.98 751.27,206.98 751.27,203.5 
		734.58,203.5 734.58,192.35 751.42,192.35 751.42,188.87 731.03,188.87 	"/>
	<path class="st4" d="M772.99,210.42c-1.15-1.77-3.26-3.8-6.34-6.07c-2.6-1.92-4.13-3.1-4.6-3.56c-0.85-0.85-1.44-1.64-1.76-2.37
		c-0.32-0.73-0.48-1.48-0.48-2.25c0-1.27,0.46-2.35,1.37-3.22c0.91-0.87,2.08-1.31,3.52-1.31c1.11,0,2.14,0.28,3.08,0.85
		c0.94,0.56,2.08,1.73,3.42,3.51l2.9-2.2c-1.63-2.23-3.17-3.75-4.63-4.58s-3.03-1.25-4.7-1.25c-1.58,0-3.04,0.37-4.39,1.1
		c-1.35,0.73-2.39,1.74-3.13,3.01c-0.74,1.27-1.11,2.68-1.11,4.23c0,1.95,0.63,3.76,1.89,5.44c0.73,1,2.57,2.62,5.54,4.86
		c2.95,2.22,4.98,4.13,6.09,5.71c0.81,1.15,1.21,2.31,1.21,3.51c0,1.05-0.27,2.04-0.82,2.98c-0.55,0.93-1.35,1.68-2.39,2.24
		c-1.05,0.56-2.17,0.83-3.36,0.83c-2.79,0-5.25-1.96-7.38-5.88l-3.02,1.81c1.48,2.71,3.1,4.64,4.86,5.79
		c1.76,1.15,3.72,1.73,5.88,1.73c2.8,0,5.19-0.95,7.15-2.85s2.94-4.14,2.94-6.72C774.71,213.97,774.14,212.19,772.99,210.42z"/>
</g>
</svg>
